<?xml version="1.0" encoding="UTF-8"?>
<svg id="_レイヤー_2" data-name="レイヤー 2" xmlns="http://www.w3.org/2000/svg" viewBox="0 0 1888.64 312.12">
  <defs>
    <style>
      .cls-1 {
        stroke: #fff;
        stroke-miterlimit: 10;
        stroke-width: 11.55px;
      }

      .cls-1, .cls-2 {
        fill: #fff;
      }

      .cls-2 {
        stroke-width: 0px;
      }
    </style>
  </defs>
  <g id="_レイヤー_1-2" data-name="レイヤー 1">
    <g>
      <g>
        <path class="cls-2" d="M404.35,277.14v12.09c0,14.56-7.28,22.88-21.32,22.88s-21.32-8.32-21.32-22.88v-47.32c0-14.56,7.28-22.88,21.32-22.88s21.32,8.32,21.32,22.88v8.84h-13.52v-9.75c0-6.5-2.86-8.97-7.41-8.97s-7.41,2.47-7.41,8.97v49.14c0,6.5,2.86,8.84,7.41,8.84s7.41-2.34,7.41-8.84v-13h13.52Z"/>
        <path class="cls-2" d="M411.88,241.91c0-14.56,7.67-22.88,21.71-22.88s21.71,8.32,21.71,22.88v47.32c0,14.56-7.67,22.88-21.71,22.88s-21.71-8.32-21.71-22.88v-47.32ZM426.18,290.15c0,6.5,2.86,8.97,7.41,8.97s7.41-2.47,7.41-8.97v-49.14c0-6.5-2.86-8.97-7.41-8.97s-7.41,2.47-7.41,8.97v49.14Z"/>
        <path class="cls-2" d="M464.53,220.07h14.3v78h23.53v13h-37.83v-91Z"/>
        <path class="cls-2" d="M508.6,220.07h14.3v78h23.53v13h-37.83v-91Z"/>
        <path class="cls-2" d="M598.95,311.08h-14.43l-2.47-16.51h-17.55l-2.47,16.51h-13.13l14.56-91h20.93l14.56,91ZM566.32,282.21h13.78l-6.89-46.02-6.89,46.02Z"/>
        <path class="cls-2" d="M648.35,241v3.25c0,9.36-2.86,15.34-9.23,18.33,7.67,2.99,10.66,9.88,10.66,19.5v7.41c0,14.04-7.41,21.58-21.71,21.58h-22.49v-91h21.58c14.82,0,21.19,6.89,21.19,20.93ZM619.88,233.07v24.05h5.59c5.33,0,8.58-2.34,8.58-9.62v-5.07c0-6.5-2.21-9.36-7.28-9.36h-6.89ZM619.88,270.12v27.95h8.19c4.81,0,7.41-2.21,7.41-8.97v-7.93c0-8.45-2.73-11.05-9.23-11.05h-6.37Z"/>
        <path class="cls-2" d="M657.19,241.91c0-14.56,7.67-22.88,21.71-22.88s21.71,8.32,21.71,22.88v47.32c0,14.56-7.67,22.88-21.71,22.88s-21.71-8.32-21.71-22.88v-47.32ZM671.49,290.15c0,6.5,2.86,8.97,7.41,8.97s7.41-2.47,7.41-8.97v-49.14c0-6.5-2.86-8.97-7.41-8.97s-7.41,2.47-7.41,8.97v49.14Z"/>
        <path class="cls-2" d="M739.74,311.08c-.78-2.34-1.3-3.77-1.3-11.18v-14.3c0-8.45-2.86-11.57-9.36-11.57h-4.94v37.05h-14.3v-91h21.58c14.82,0,21.19,6.89,21.19,20.93v7.15c0,9.36-2.99,15.47-9.36,18.46,7.15,2.99,9.49,9.88,9.49,19.37v14.04c0,4.42.13,7.67,1.56,11.05h-14.56ZM724.14,233.07v27.95h5.59c5.33,0,8.58-2.34,8.58-9.62v-8.97c0-6.5-2.21-9.36-7.28-9.36h-6.89Z"/>
        <path class="cls-2" d="M808.38,311.08h-14.43l-2.47-16.51h-17.55l-2.47,16.51h-13.13l14.56-91h20.93l14.56,91ZM775.75,282.21h13.78l-6.89-46.02-6.89,46.02Z"/>
        <path class="cls-2" d="M810.84,220.07h44.2v13h-14.95v78h-14.3v-78h-14.95v-13Z"/>
        <path class="cls-2" d="M861.28,220.07h14.3v91h-14.3v-91Z"/>
        <path class="cls-2" d="M884.81,241.91c0-14.56,7.67-22.88,21.71-22.88s21.71,8.32,21.71,22.88v47.32c0,14.56-7.67,22.88-21.71,22.88s-21.71-8.32-21.71-22.88v-47.32ZM899.11,290.15c0,6.5,2.86,8.97,7.41,8.97s7.41-2.47,7.41-8.97v-49.14c0-6.5-2.86-8.97-7.41-8.97s-7.41,2.47-7.41,8.97v49.14Z"/>
        <path class="cls-2" d="M950.2,245.16v65.91h-12.87v-91h17.94l14.69,54.47v-54.47h12.74v91h-14.69l-17.81-65.91Z"/>
        <path class="cls-2" d="M1060.44,277.14v12.09c0,14.56-7.28,22.88-21.32,22.88s-21.32-8.32-21.32-22.88v-47.32c0-14.56,7.28-22.88,21.32-22.88s21.32,8.32,21.32,22.88v8.84h-13.52v-9.75c0-6.5-2.86-8.97-7.41-8.97s-7.41,2.47-7.41,8.97v49.14c0,6.5,2.86,8.84,7.41,8.84s7.41-2.34,7.41-8.84v-13h13.52Z"/>
        <path class="cls-2" d="M1067.98,241.91c0-14.56,7.67-22.88,21.71-22.88s21.71,8.32,21.71,22.88v47.32c0,14.56-7.67,22.88-21.71,22.88s-21.71-8.32-21.71-22.88v-47.32ZM1082.28,290.15c0,6.5,2.86,8.97,7.41,8.97s7.41-2.47,7.41-8.97v-49.14c0-6.5-2.86-8.97-7.41-8.97s-7.41,2.47-7.41,8.97v49.14Z"/>
        <path class="cls-2" d="M1120.63,220.07h14.3v78h23.53v13h-37.83v-91Z"/>
        <path class="cls-2" d="M1164.7,220.07h14.3v78h23.53v13h-37.83v-91Z"/>
        <path class="cls-2" d="M1223.06,258.42h19.63v13h-19.63v26.65h24.7v13h-39v-91h39v13h-24.7v25.35Z"/>
        <path class="cls-2" d="M1298.08,277.14v12.09c0,14.56-7.28,22.88-21.32,22.88s-21.32-8.32-21.32-22.88v-47.32c0-14.56,7.28-22.88,21.32-22.88s21.32,8.32,21.32,22.88v8.84h-13.52v-9.75c0-6.5-2.86-8.97-7.41-8.97s-7.41,2.47-7.41,8.97v49.14c0,6.5,2.86,8.84,7.41,8.84s7.41-2.34,7.41-8.84v-13h13.52Z"/>
        <path class="cls-2" d="M1302.62,220.07h44.2v13h-14.95v78h-14.3v-78h-14.95v-13Z"/>
        <path class="cls-2" d="M1353.06,220.07h14.3v91h-14.3v-91Z"/>
        <path class="cls-2" d="M1376.59,241.91c0-14.56,7.67-22.88,21.71-22.88s21.71,8.32,21.71,22.88v47.32c0,14.56-7.67,22.88-21.71,22.88s-21.71-8.32-21.71-22.88v-47.32ZM1390.89,290.15c0,6.5,2.86,8.97,7.41,8.97s7.41-2.47,7.41-8.97v-49.14c0-6.5-2.86-8.97-7.41-8.97s-7.41,2.47-7.41,8.97v49.14Z"/>
        <path class="cls-2" d="M1441.98,245.16v65.91h-12.87v-91h17.94l14.69,54.47v-54.47h12.74v91h-14.69l-17.81-65.91Z"/>
      </g>
      <g>
        <path class="cls-2" d="M16.5,46.24h22.65v15h-22.65v30.75h28.5v15H0V1.99h45v15h-28.5v29.25Z"/>
        <path class="cls-2" d="M103.05,67.84v13.95c0,16.8-8.4,26.4-24.6,26.4s-24.6-9.6-24.6-26.4V27.19C53.85,10.39,62.25.79,78.45.79s24.6,9.6,24.6,26.4v10.2h-15.6v-11.25c0-7.5-3.3-10.35-8.55-10.35s-8.55,2.85-8.55,10.35v56.7c0,7.5,3.3,10.2,8.55,10.2s8.55-2.7,8.55-10.2v-15h15.6Z"/>
        <path class="cls-2" d="M113.1,1.99h16.5v90h27.15v15h-43.65V1.99Z"/>
        <path class="cls-2" d="M217.34,106.99h-16.65l-2.85-19.05h-20.25l-2.85,19.05h-15.15L176.39,1.99h24.15l16.8,105ZM179.69,73.69h15.9l-7.95-53.1-7.95,53.1Z"/>
        <path class="cls-2" d="M220.2,1.99h51v15h-17.25v90h-16.5V16.99h-17.25V1.99Z"/>
        <path class="cls-2" d="M278.39,1.99h16.5v105h-16.5V1.99Z"/>
        <path class="cls-2" d="M305.54,27.19c0-16.8,8.85-26.4,25.05-26.4s25.05,9.6,25.05,26.4v54.6c0,5.85-1.05,10.8-3.15,14.7.75,1.95,1.95,2.25,4.65,2.25h1.5v14.7h-2.25c-7.35,0-12-2.7-14.25-7.2-3.3,1.2-7.2,1.95-11.55,1.95-16.2,0-25.05-9.6-25.05-26.4V27.19ZM322.04,82.84c0,7.5,3.3,10.35,8.55,10.35s8.55-2.85,8.55-10.35V26.14c0-7.5-3.3-10.35-8.55-10.35s-8.55,2.85-8.55,10.35v56.7Z"/>
        <path class="cls-2" d="M382.04,1.99v81c0,7.5,3.3,10.2,8.55,10.2s8.55-2.7,8.55-10.2V1.99h15.6v79.95c0,16.8-8.4,26.4-24.6,26.4s-24.6-9.6-24.6-26.4V1.99h16.5Z"/>
        <path class="cls-2" d="M442.49,46.24h22.65v15h-22.65v30.75h28.5v15h-45V1.99h45v15h-28.5v29.25Z"/>
      </g>
      <g>
        <path class="cls-2" d="M745.95,7.54h22.1l18.85,55.38,14.56-36.53-7.54-18.85h18.72l21.45,53.17,16.25-53.17h20.28l-36.92,99.19-22.75-56.68-26.52,56.94-38.48-99.45Z"/>
        <path class="cls-2" d="M875.95,25.61c0-2.69,1.06-4.89,3.19-6.63,2.12-1.73,4.4-2.6,6.83-2.6s4.66.87,6.69,2.6c2.04,1.73,3.06,3.94,3.06,6.63s-1.02,4.88-3.06,6.57c-2.04,1.69-4.27,2.54-6.69,2.54s-4.7-.84-6.83-2.54c-2.12-1.69-3.19-3.88-3.19-6.57ZM876.34,45.76h18.2v56.81h-18.2v-56.81Z"/>
        <path class="cls-2" d="M913.26,0h18.2v102.57h-18.2V0Z"/>
        <path class="cls-2" d="M973.32,104.13c-5.29,0-10.01-1.24-14.17-3.71s-7.43-6.04-9.82-10.73c-2.38-4.68-3.57-10.22-3.57-16.64s1.3-11.87,3.9-16.38c2.6-4.51,6.15-7.93,10.66-10.27,4.5-2.34,9.62-3.51,15.34-3.51,3.64,0,7.13.56,10.46,1.69,3.34,1.13,6.13,2.86,8.39,5.2V0h18.07v102.57h-18.2v-5.98c-2.77,2.17-5.89,3.96-9.36,5.39-3.47,1.43-7.37,2.15-11.7,2.15ZM979.3,88.79c3.64,0,6.67-.72,9.1-2.15,2.42-1.43,4.42-3.57,5.98-6.43v-13.91c-1.04-2.77-2.9-4.98-5.59-6.63-2.69-1.65-5.85-2.47-9.49-2.47-2.69,0-5.18.67-7.48,2.02-2.3,1.34-4.14,3.19-5.52,5.53-1.39,2.34-2.08,5.03-2.08,8.06s.69,5.76,2.08,8.19c1.38,2.43,3.23,4.33,5.52,5.72,2.3,1.39,4.79,2.08,7.48,2.08Z"/>
        <path class="cls-2" d="M1059.25,104.13c-6.93,0-12.8-1.3-17.61-3.9-4.81-2.6-8.47-6.2-10.99-10.79-2.51-4.59-3.77-9.88-3.77-15.86s1.47-10.88,4.42-15.47c2.95-4.59,6.89-8.25,11.83-10.98,4.94-2.73,10.44-4.1,16.51-4.1,8.15,0,14.84,2.36,20.08,7.09,5.24,4.72,8.64,11.55,10.21,20.47l-41.6,13.26c2.77,3.21,6.54,4.81,11.31,4.81,1.99,0,3.92-.35,5.79-1.04,1.86-.69,3.71-1.6,5.52-2.73l8.06,13.52c-3.04,1.73-6.31,3.12-9.82,4.16-3.51,1.04-6.83,1.56-9.95,1.56ZM1044.82,73.71l24.96-8.45c-.78-2.17-2.04-4.05-3.77-5.65-1.74-1.6-4.33-2.41-7.8-2.41-4.07,0-7.32,1.39-9.75,4.16-2.43,2.78-3.64,6.5-3.64,11.18v1.17Z"/>
        <path class="cls-2" d="M1119.57,45.76l1.43,13c1.65-3.29,3.9-6.13,6.76-8.52,2.86-2.38,5.68-4.2,8.45-5.46,2.77-1.26,4.9-1.88,6.37-1.88l-.91,18.2c-4.25-.52-7.89.17-10.92,2.08-3.03,1.91-5.38,4.42-7.02,7.54-1.65,3.12-2.47,6.33-2.47,9.62v22.23h-18.07v-56.81h16.38Z"/>
        <path class="cls-2" d="M1173,45.76l1.3,9.1c1.99-3.55,4.81-6.41,8.45-8.58,3.64-2.16,8.06-3.25,13.26-3.25s9.86,1.58,13.46,4.75c3.6,3.16,5.44,7.26,5.53,12.29v42.51h-18.2v-35.75c-.09-2.51-.76-4.53-2.02-6.04-1.26-1.52-3.36-2.28-6.3-2.28-4.25,0-7.6,1.97-10.08,5.92-2.47,3.94-3.71,8.95-3.71,15.01v23.14h-18.2v-56.81h16.51Z"/>
        <path class="cls-2" d="M1261.66,104.13c-6.93,0-12.8-1.3-17.61-3.9-4.81-2.6-8.47-6.2-10.99-10.79-2.51-4.59-3.77-9.88-3.77-15.86s1.47-10.88,4.42-15.47c2.95-4.59,6.89-8.25,11.83-10.98,4.94-2.73,10.44-4.1,16.51-4.1,8.15,0,14.84,2.36,20.08,7.09,5.24,4.72,8.64,11.55,10.21,20.47l-41.6,13.26c2.77,3.21,6.54,4.81,11.31,4.81,1.99,0,3.92-.35,5.79-1.04,1.86-.69,3.71-1.6,5.52-2.73l8.06,13.52c-3.04,1.73-6.31,3.12-9.82,4.16-3.51,1.04-6.83,1.56-9.95,1.56ZM1247.23,73.71l24.96-8.45c-.78-2.17-2.04-4.05-3.77-5.65-1.74-1.6-4.33-2.41-7.8-2.41-4.07,0-7.32,1.39-9.75,4.16-2.43,2.78-3.64,6.5-3.64,11.18v1.17Z"/>
        <path class="cls-2" d="M1324.06,103.74c-4.68,0-9.04-.83-13.07-2.47-4.03-1.64-7.43-3.94-10.21-6.89l7.54-10.01c2.77,2.52,5.35,4.31,7.74,5.4,2.38,1.08,4.53,1.62,6.43,1.62,2.25,0,4.12-.34,5.59-1.04,1.47-.69,2.21-1.82,2.21-3.38,0-1.47-.58-2.64-1.75-3.51-1.17-.87-2.67-1.58-4.48-2.15-1.82-.56-3.77-1.15-5.85-1.75-5.2-1.65-8.95-4.05-11.25-7.22-2.3-3.16-3.44-6.61-3.44-10.33,0-2.86.76-5.74,2.27-8.64,1.52-2.9,3.94-5.33,7.28-7.28,3.33-1.95,7.65-2.92,12.93-2.92,4.77,0,8.8.48,12.09,1.43,3.29.96,6.41,2.51,9.36,4.68l-6.89,10.66c-1.65-1.3-3.49-2.4-5.53-3.31-2.04-.91-3.92-1.41-5.65-1.5-2.34-.08-4.16.33-5.46,1.24-1.3.91-1.95,1.97-1.95,3.18-.09,2.08.89,3.58,2.92,4.49,2.04.91,4.31,1.71,6.83,2.4.61.17,1.19.35,1.75.52.56.18,1.1.35,1.62.52,4.07,1.39,7.32,3.36,9.75,5.92,2.42,2.56,3.64,5.96,3.64,10.21,0,3.47-.89,6.74-2.67,9.81-1.78,3.08-4.46,5.57-8.06,7.48-3.6,1.91-8.17,2.86-13.71,2.86Z"/>
        <path class="cls-2" d="M1382.16,103.74c-4.68,0-9.04-.83-13.07-2.47-4.03-1.64-7.43-3.94-10.21-6.89l7.54-10.01c2.77,2.52,5.35,4.31,7.74,5.4,2.38,1.08,4.53,1.62,6.43,1.62,2.25,0,4.12-.34,5.59-1.04,1.47-.69,2.21-1.82,2.21-3.38,0-1.47-.58-2.64-1.75-3.51-1.17-.87-2.67-1.58-4.48-2.15-1.82-.56-3.77-1.15-5.85-1.75-5.2-1.65-8.95-4.05-11.25-7.22-2.3-3.16-3.44-6.61-3.44-10.33,0-2.86.76-5.74,2.27-8.64,1.52-2.9,3.94-5.33,7.28-7.28,3.33-1.95,7.65-2.92,12.93-2.92,4.77,0,8.8.48,12.09,1.43,3.29.96,6.41,2.51,9.36,4.68l-6.89,10.66c-1.65-1.3-3.49-2.4-5.53-3.31-2.04-.91-3.92-1.41-5.65-1.5-2.34-.08-4.16.33-5.46,1.24-1.3.91-1.95,1.97-1.95,3.18-.09,2.08.89,3.58,2.92,4.49,2.04.91,4.31,1.71,6.83,2.4.61.17,1.19.35,1.75.52.56.18,1.1.35,1.62.52,4.07,1.39,7.32,3.36,9.75,5.92,2.42,2.56,3.64,5.96,3.64,10.21,0,3.47-.89,6.74-2.67,9.81-1.78,3.08-4.46,5.57-8.06,7.48-3.6,1.91-8.17,2.86-13.71,2.86Z"/>
        <path class="cls-2" d="M1416.61,7.54h22.1l18.85,55.38,14.56-36.53-7.54-18.85h18.72l21.45,53.17,16.25-53.17h20.28l-36.92,99.19-22.75-56.68-26.52,56.94-38.48-99.45Z"/>
        <path class="cls-2" d="M1563.12,104.13c-5.29,0-10.08-1.06-14.37-3.18-4.29-2.12-7.69-5.4-10.21-9.82-2.51-4.42-3.77-10.05-3.77-16.9,0-6.41,1.3-11.96,3.9-16.64,2.6-4.68,6.02-8.3,10.27-10.86,4.25-2.55,8.75-3.83,13.52-3.83,5.55,0,9.75.89,12.61,2.66,2.86,1.78,5.24,3.79,7.15,6.04l1.17-5.85h16.9v56.81h-18.2v-7.02c-.87.87-2.14,2-3.83,3.38-1.69,1.39-3.79,2.6-6.3,3.64-2.51,1.04-5.46,1.56-8.84,1.56ZM1568.32,89.31c6.33,0,10.92-2.86,13.78-8.58v-13.91c-1.04-2.77-2.84-4.98-5.39-6.63-2.56-1.64-5.57-2.47-9.04-2.47-3.9,0-7.28,1.45-10.14,4.35-2.86,2.91-4.29,6.65-4.29,11.25,0,3.03.69,5.76,2.08,8.19,1.38,2.43,3.23,4.33,5.52,5.72,2.3,1.39,4.79,2.08,7.48,2.08Z"/>
        <path class="cls-2" d="M1635.53,45.76l1.3,9.1c1.99-3.55,4.81-6.41,8.45-8.58,3.64-2.16,8.06-3.25,13.26-3.25s9.86,1.58,13.46,4.75c3.6,3.16,5.44,7.26,5.53,12.29v42.51h-18.2v-35.75c-.09-2.51-.76-4.53-2.02-6.04-1.26-1.52-3.36-2.28-6.3-2.28-4.25,0-7.6,1.97-10.08,5.92-2.47,3.94-3.71,8.95-3.71,15.01v23.14h-18.2v-56.81h16.51Z"/>
        <path class="cls-2" d="M1719.38,104.13c-5.29,0-10.01-1.24-14.17-3.71s-7.43-6.04-9.82-10.73c-2.38-4.68-3.57-10.22-3.57-16.64s1.3-11.87,3.9-16.38c2.6-4.51,6.15-7.93,10.66-10.27,4.5-2.34,9.62-3.51,15.34-3.51,3.64,0,7.13.56,10.46,1.69,3.34,1.13,6.13,2.86,8.39,5.2V0h18.07v102.57h-18.2v-5.98c-2.77,2.17-5.89,3.96-9.36,5.39-3.47,1.43-7.37,2.15-11.7,2.15ZM1725.36,88.79c3.64,0,6.67-.72,9.1-2.15,2.42-1.43,4.42-3.57,5.98-6.43v-13.91c-1.04-2.77-2.9-4.98-5.59-6.63-2.69-1.65-5.85-2.47-9.49-2.47-2.69,0-5.18.67-7.48,2.02-2.3,1.34-4.14,3.19-5.52,5.53-1.39,2.34-2.08,5.03-2.08,8.06s.69,5.76,2.08,8.19c1.38,2.43,3.23,4.33,5.52,5.72,2.3,1.39,4.79,2.08,7.48,2.08Z"/>
        <path class="cls-2" d="M1805.31,104.13c-6.93,0-12.8-1.3-17.61-3.9-4.81-2.6-8.47-6.2-10.99-10.79-2.51-4.59-3.77-9.88-3.77-15.86s1.47-10.88,4.42-15.47c2.95-4.59,6.89-8.25,11.83-10.98,4.94-2.73,10.44-4.1,16.51-4.1,8.15,0,14.84,2.36,20.08,7.09,5.24,4.72,8.64,11.55,10.21,20.47l-41.6,13.26c2.77,3.21,6.54,4.81,11.31,4.81,1.99,0,3.92-.35,5.79-1.04,1.86-.69,3.71-1.6,5.52-2.73l8.06,13.52c-3.04,1.73-6.31,3.12-9.82,4.16-3.51,1.04-6.83,1.56-9.95,1.56ZM1790.88,73.71l24.96-8.45c-.78-2.17-2.04-4.05-3.77-5.65-1.74-1.6-4.33-2.41-7.8-2.41-4.07,0-7.32,1.39-9.75,4.16-2.43,2.78-3.64,6.5-3.64,11.18v1.17Z"/>
        <path class="cls-2" d="M1865.63,45.76l1.43,13c1.65-3.29,3.9-6.13,6.76-8.52,2.86-2.38,5.68-4.2,8.45-5.46,2.77-1.26,4.9-1.88,6.37-1.88l-.91,18.2c-4.25-.52-7.89.17-10.92,2.08-3.03,1.91-5.38,4.42-7.02,7.54-1.65,3.12-2.47,6.33-2.47,9.62v22.23h-18.07v-56.81h16.38Z"/>
      </g>
      <g>
        <line class="cls-1" x1="569.01" y1="21.81" x2="648.89" y2="101.7"/>
        <line class="cls-1" x1="648.89" y1="21.81" x2="569.01" y2="101.7"/>
      </g>
    </g>
  </g>
</svg>