<?xml version="1.0" encoding="UTF-8"?>
<svg id="_レイヤー_2" data-name="レイヤー 2" xmlns="http://www.w3.org/2000/svg" viewBox="0 0 440.68 105.41">
  <defs>
    <style>
      .cls-1 {
        fill: #fff;
        stroke-width: 0px;
      }
    </style>
  </defs>
  <g id="_レイヤー_1-2" data-name="レイヤー 1">
    <g>
      <path class="cls-1" d="M15.44,42.53h21.19v14.04H15.44v28.77h26.67v14.04H0V1.12h42.11v14.04H15.44v27.37Z"/>
      <path class="cls-1" d="M96.42,62.74v13.05c0,15.72-7.86,24.7-23.02,24.7s-23.02-8.98-23.02-24.7V24.7c0-15.72,7.86-24.7,23.02-24.7s23.02,8.98,23.02,24.7v9.54h-14.6v-10.53c0-7.02-3.09-9.69-8-9.69s-8,2.67-8,9.69v53.06c0,7.02,3.09,9.54,8,9.54s8-2.53,8-9.54v-14.04h14.6Z"/>
      <path class="cls-1" d="M105.82,1.12h15.44v84.21h25.41v14.04h-40.84V1.12Z"/>
      <path class="cls-1" d="M203.36,99.37h-15.58l-2.67-17.83h-18.95l-2.67,17.83h-14.18L165.05,1.12h22.6l15.72,98.25ZM168.13,68.21h14.88l-7.44-49.69-7.44,49.69Z"/>
      <path class="cls-1" d="M206.03,1.12h47.72v14.04h-16.14v84.22h-15.44V15.16h-16.14V1.12Z"/>
      <path class="cls-1" d="M260.48,1.12h15.44v98.25h-15.44V1.12Z"/>
      <path class="cls-1" d="M285.88,24.7c0-15.72,8.28-24.7,23.44-24.7s23.44,8.98,23.44,24.7v51.09c0,5.47-.98,10.11-2.95,13.76.7,1.83,1.82,2.11,4.35,2.11h1.4v13.76h-2.11c-6.88,0-11.23-2.53-13.33-6.74-3.09,1.12-6.74,1.83-10.81,1.83-15.16,0-23.44-8.98-23.44-24.7V24.7ZM301.32,76.78c0,7.02,3.09,9.68,8,9.68s8-2.67,8-9.68V23.72c0-7.02-3.09-9.69-8-9.69s-8,2.67-8,9.69v53.06Z"/>
      <path class="cls-1" d="M357.46,1.12v75.79c0,7.02,3.09,9.54,8,9.54s8-2.53,8-9.54V1.12h14.6v74.81c0,15.72-7.86,24.7-23.02,24.7s-23.02-8.98-23.02-24.7V1.12h15.44Z"/>
      <path class="cls-1" d="M414.01,42.53h21.19v14.04h-21.19v28.77h26.67v14.04h-42.11V1.12h42.11v14.04h-26.67v27.37Z"/>
    </g>
  </g>
</svg>