<?xml version="1.0" encoding="UTF-8"?>
<svg id="_レイヤー_2" data-name="レイヤー 2" xmlns="http://www.w3.org/2000/svg" viewBox="0 0 700 700">
  <defs>
    <style>
      .cls-1, .cls-2, .cls-3 {
        stroke-width: 0px;
      }

      .cls-2 {
        fill: none;
      }

      .cls-3 {
        fill: #fff;
      }
    </style>
  </defs>
  <g id="_レイヤー_1-2" data-name="レイヤー 1">
    <g>
      <rect class="cls-3" width="700" height="700"/>
      <g>
        <g>
          <path class="cls-1" d="M151.12,341.44h21.19v14.04h-21.19v28.77h26.67v14.04h-42.11v-98.25h42.11v14.04h-26.67v27.37Z"/>
          <path class="cls-1" d="M232.11,361.65v13.05c0,15.72-7.86,24.7-23.02,24.7s-23.02-8.98-23.02-24.7v-51.09c0-15.72,7.86-24.7,23.02-24.7s23.02,8.98,23.02,24.7v9.54h-14.6v-10.53c0-7.02-3.09-9.69-8-9.69s-8,2.67-8,9.69v53.06c0,7.02,3.09,9.54,8,9.54s8-2.53,8-9.54v-14.04h14.6Z"/>
          <path class="cls-1" d="M241.5,300.04h15.44v84.21h25.41v14.04h-40.84v-98.25Z"/>
          <path class="cls-1" d="M339.05,398.29h-15.58l-2.67-17.83h-18.95l-2.67,17.83h-14.18l15.72-98.25h22.6l15.72,98.25ZM303.82,367.13h14.88l-7.44-49.69-7.44,49.69Z"/>
          <path class="cls-1" d="M341.71,300.04h47.72v14.04h-16.14v84.22h-15.44v-84.22h-16.14v-14.04Z"/>
          <path class="cls-1" d="M396.16,300.04h15.44v98.25h-15.44v-98.25Z"/>
          <path class="cls-1" d="M421.56,323.62c0-15.72,8.28-24.7,23.44-24.7s23.44,8.98,23.44,24.7v51.09c0,5.47-.98,10.11-2.95,13.76.7,1.83,1.82,2.11,4.35,2.11h1.4v13.76h-2.11c-6.88,0-11.23-2.53-13.33-6.74-3.09,1.12-6.74,1.83-10.81,1.83-15.16,0-23.44-8.98-23.44-24.7v-51.09ZM437,375.69c0,7.02,3.09,9.68,8,9.68s8-2.67,8-9.68v-53.06c0-7.02-3.09-9.69-8-9.69s-8,2.67-8,9.69v53.06Z"/>
          <path class="cls-1" d="M493.14,300.04v75.79c0,7.02,3.09,9.54,8,9.54s8-2.53,8-9.54v-75.79h14.6v74.81c0,15.72-7.86,24.7-23.02,24.7s-23.02-8.98-23.02-24.7v-74.81h15.44Z"/>
          <path class="cls-1" d="M549.7,341.44h21.19v14.04h-21.19v28.77h26.67v14.04h-42.11v-98.25h42.11v14.04h-26.67v27.37Z"/>
        </g>
        <rect class="cls-2" x="110.26" y="291.65" width="479.49" height="116.7"/>
      </g>
    </g>
  </g>
</svg>