<?xml version="1.0" encoding="UTF-8"?>
<svg id="_レイヤー_2" data-name="レイヤー 2" xmlns="http://www.w3.org/2000/svg" viewBox="0 0 997.82 997.82">
  <defs>
    <style>
      .cls-1, .cls-2 {
        stroke-width: 0px;
      }

      .cls-2 {
        fill: #fff;
      }
    </style>
  </defs>
  <g id="_レイヤー_1-2" data-name="レイヤー 1">
    <g>
      <rect class="cls-1" width="997.82" height="997.82"/>
      <g>
        <path class="cls-2" d="M477.29,280.93h81.62v54.06h-81.62v110.81h102.71v54.06h-162.17V121.47h162.17v54.05h-102.71v105.41Z"/>
        <g>
          <path class="cls-2" d="M209.05,585h64.74l55.22,162.24,42.66-107.01-22.09-55.23h54.84l62.84,155.77,47.6-155.77h59.41l-108.16,290.59-66.64-166.05-77.69,166.81-112.73-291.34Z"/>
          <path class="cls-2" d="M500.35,643.27h51.79l44.18,129.79,34.13-85.61-17.67-44.18h43.87l50.27,124.61,38.08-124.61h47.53l-86.53,232.47-53.31-132.84-62.15,133.45-90.18-233.08Z"/>
        </g>
        <path class="cls-2" d="M802.48,520.86l8.58,41.88-615.73-.61-8.58-41.88,615.73.61Z"/>
      </g>
    </g>
  </g>
</svg>