<?xml version="1.0" encoding="UTF-8"?>
<svg id="_レイヤー_2" data-name="レイヤー 2" xmlns="http://www.w3.org/2000/svg" viewBox="0 0 700 700">
  <defs>
    <style>
      .cls-1, .cls-2, .cls-3 {
        stroke-width: 0px;
      }

      .cls-2 {
        fill: none;
      }

      .cls-3 {
        fill: #fff;
      }
    </style>
  </defs>
  <g id="_レイヤー_1-2" data-name="レイヤー 1">
    <g>
      <rect class="cls-3" width="700" height="700"/>
      <g>
        <g>
          <path class="cls-1" d="M108.81,195.53h53.52l45.65,134.13,35.27-88.47-18.26-45.66h45.34l51.95,128.78,39.36-128.78h49.12l-89.42,240.24-55.09-137.28-64.23,137.91-93.2-240.87Z"/>
          <path class="cls-1" d="M349.63,243.7h42.82l36.52,107.3,28.21-70.77-14.61-36.53h36.27l41.56,103.02,31.49-103.02h39.29l-71.54,192.19-44.08-109.82-51.38,110.33-74.56-192.69Z"/>
        </g>
        <g>
          <g>
            <path class="cls-1" d="M110.29,460.02h9.35l7.97,23.42,6.16-15.45-3.19-7.97h7.92l9.07,22.49,6.87-22.49h8.58l-15.61,41.95-9.62-23.97-11.22,24.08-16.27-42.06Z"/>
            <path class="cls-1" d="M165.28,467.67c0-1.14.45-2.07,1.35-2.8.9-.73,1.86-1.1,2.89-1.1s1.97.37,2.83,1.1c.86.73,1.29,1.67,1.29,2.8s-.43,2.06-1.29,2.78c-.86.71-1.81,1.07-2.83,1.07s-1.99-.36-2.89-1.07c-.9-.71-1.35-1.64-1.35-2.78ZM165.44,476.19h7.7v24.03h-7.7v-24.03Z"/>
            <path class="cls-1" d="M181.06,456.84h7.7v43.38h-7.7v-43.38Z"/>
            <path class="cls-1" d="M206.46,500.88c-2.24,0-4.23-.52-5.99-1.57-1.76-1.04-3.14-2.56-4.15-4.54-1.01-1.98-1.51-4.32-1.51-7.04s.55-5.02,1.65-6.93c1.1-1.91,2.6-3.35,4.51-4.34,1.91-.99,4.07-1.48,6.49-1.48,1.54,0,3.01.24,4.43.71,1.41.48,2.59,1.21,3.55,2.2v-21.06h7.64v43.38h-7.7v-2.53c-1.17.92-2.49,1.68-3.96,2.28-1.47.61-3.12.91-4.95.91ZM208.99,494.39c1.54,0,2.82-.3,3.85-.91,1.03-.6,1.87-1.51,2.53-2.72v-5.88c-.44-1.17-1.23-2.11-2.36-2.8-1.14-.7-2.47-1.04-4.01-1.04-1.14,0-2.19.28-3.16.85-.97.57-1.75,1.35-2.34,2.34-.59.99-.88,2.13-.88,3.41s.29,2.44.88,3.46c.59,1.03,1.37,1.83,2.34,2.42.97.59,2.03.88,3.16.88Z"/>
            <path class="cls-1" d="M242.8,500.88c-2.93,0-5.42-.55-7.45-1.65-2.03-1.1-3.58-2.62-4.65-4.56-1.06-1.94-1.59-4.18-1.59-6.71s.62-4.6,1.87-6.54c1.25-1.94,2.91-3.49,5-4.65,2.09-1.15,4.42-1.73,6.98-1.73,3.45,0,6.28,1,8.49,3,2.22,2,3.66,4.88,4.32,8.66l-17.59,5.61c1.17,1.36,2.77,2.03,4.78,2.03.84,0,1.66-.15,2.45-.44.79-.29,1.57-.68,2.34-1.15l3.41,5.72c-1.28.73-2.67,1.32-4.15,1.76-1.48.44-2.89.66-4.21.66ZM236.7,488.01l10.56-3.57c-.33-.92-.86-1.71-1.59-2.39-.73-.68-1.83-1.02-3.3-1.02-1.72,0-3.1.59-4.12,1.76-1.03,1.17-1.54,2.75-1.54,4.73v.49Z"/>
            <path class="cls-1" d="M268.31,476.19l.6,5.5c.7-1.39,1.65-2.59,2.86-3.6,1.21-1.01,2.4-1.78,3.57-2.31,1.17-.53,2.07-.8,2.69-.8l-.38,7.7c-1.8-.22-3.34.07-4.62.88-1.28.81-2.27,1.87-2.97,3.19-.7,1.32-1.04,2.68-1.04,4.07v9.4h-7.64v-24.03h6.93Z"/>
            <path class="cls-1" d="M290.91,476.19l.55,3.85c.84-1.5,2.03-2.71,3.57-3.63,1.54-.92,3.41-1.37,5.61-1.37s4.17.67,5.69,2.01c1.52,1.34,2.3,3.07,2.34,5.2v17.98h-7.7v-15.12c-.04-1.06-.32-1.91-.85-2.56-.53-.64-1.42-.96-2.67-.96-1.8,0-3.22.83-4.26,2.5-1.04,1.67-1.57,3.78-1.57,6.35v9.79h-7.7v-24.03h6.98Z"/>
            <path class="cls-1" d="M328.41,500.88c-2.93,0-5.42-.55-7.45-1.65-2.03-1.1-3.58-2.62-4.65-4.56-1.06-1.94-1.59-4.18-1.59-6.71s.62-4.6,1.87-6.54c1.25-1.94,2.91-3.49,5-4.65,2.09-1.15,4.42-1.73,6.98-1.73,3.45,0,6.28,1,8.49,3,2.22,2,3.66,4.88,4.32,8.66l-17.59,5.61c1.17,1.36,2.77,2.03,4.78,2.03.84,0,1.66-.15,2.45-.44.79-.29,1.57-.68,2.34-1.15l3.41,5.72c-1.28.73-2.67,1.32-4.15,1.76-1.48.44-2.89.66-4.21.66ZM322.3,488.01l10.56-3.57c-.33-.92-.86-1.71-1.59-2.39-.73-.68-1.83-1.02-3.3-1.02-1.72,0-3.1.59-4.12,1.76-1.03,1.17-1.54,2.75-1.54,4.73v.49Z"/>
            <path class="cls-1" d="M354.8,500.71c-1.98,0-3.82-.35-5.53-1.04-1.7-.7-3.14-1.67-4.32-2.91l3.19-4.23c1.17,1.06,2.26,1.82,3.27,2.28,1.01.46,1.91.69,2.72.69.95,0,1.74-.15,2.36-.44.62-.29.93-.77.93-1.43,0-.62-.25-1.12-.74-1.48-.49-.37-1.13-.67-1.9-.91-.77-.24-1.59-.49-2.47-.74-2.2-.7-3.78-1.71-4.76-3.05-.97-1.34-1.46-2.79-1.46-4.37,0-1.21.32-2.43.96-3.66.64-1.23,1.67-2.25,3.08-3.08,1.41-.82,3.23-1.24,5.47-1.24,2.02,0,3.72.2,5.11.61,1.39.4,2.71,1.06,3.96,1.98l-2.91,4.51c-.7-.55-1.48-1.02-2.34-1.4-.86-.38-1.66-.6-2.39-.63-.99-.04-1.76.14-2.31.52-.55.38-.82.83-.82,1.35-.04.88.38,1.51,1.24,1.9.86.38,1.82.72,2.89,1.02.26.07.5.15.74.22.24.07.47.15.69.22,1.72.59,3.1,1.42,4.12,2.5,1.03,1.08,1.54,2.52,1.54,4.32,0,1.47-.38,2.85-1.13,4.15-.75,1.3-1.89,2.36-3.41,3.16-1.52.81-3.46,1.21-5.8,1.21Z"/>
            <path class="cls-1" d="M379.37,500.71c-1.98,0-3.82-.35-5.53-1.04-1.7-.7-3.14-1.67-4.32-2.91l3.19-4.23c1.17,1.06,2.26,1.82,3.27,2.28,1.01.46,1.91.69,2.72.69.95,0,1.74-.15,2.36-.44.62-.29.93-.77.93-1.43,0-.62-.25-1.12-.74-1.48-.49-.37-1.13-.67-1.9-.91-.77-.24-1.59-.49-2.47-.74-2.2-.7-3.78-1.71-4.76-3.05-.97-1.34-1.46-2.79-1.46-4.37,0-1.21.32-2.43.96-3.66.64-1.23,1.67-2.25,3.08-3.08,1.41-.82,3.23-1.24,5.47-1.24,2.02,0,3.72.2,5.11.61,1.39.4,2.71,1.06,3.96,1.98l-2.91,4.51c-.7-.55-1.48-1.02-2.34-1.4-.86-.38-1.66-.6-2.39-.63-.99-.04-1.76.14-2.31.52-.55.38-.82.83-.82,1.35-.04.88.38,1.51,1.24,1.9.86.38,1.82.72,2.89,1.02.26.07.5.15.74.22.24.07.47.15.69.22,1.72.59,3.1,1.42,4.12,2.5,1.03,1.08,1.54,2.52,1.54,4.32,0,1.47-.38,2.85-1.13,4.15-.75,1.3-1.89,2.36-3.41,3.16-1.52.81-3.46,1.21-5.8,1.21Z"/>
            <path class="cls-1" d="M393.94,460.02h9.35l7.97,23.42,6.16-15.45-3.19-7.97h7.92l9.07,22.49,6.87-22.49h8.58l-15.61,41.95-9.62-23.97-11.22,24.08-16.27-42.06Z"/>
            <path class="cls-1" d="M455.91,500.88c-2.24,0-4.26-.45-6.08-1.35-1.81-.9-3.25-2.28-4.32-4.15-1.06-1.87-1.59-4.25-1.59-7.15,0-2.71.55-5.06,1.65-7.04,1.1-1.98,2.55-3.51,4.34-4.59,1.8-1.08,3.7-1.62,5.72-1.62,2.35,0,4.12.38,5.33,1.13,1.21.75,2.22,1.6,3.02,2.56l.49-2.47h7.15v24.03h-7.7v-2.97c-.37.37-.91.84-1.62,1.43-.71.59-1.6,1.1-2.67,1.54-1.06.44-2.31.66-3.74.66ZM458.11,494.61c2.68,0,4.62-1.21,5.83-3.63v-5.88c-.44-1.17-1.2-2.11-2.28-2.8-1.08-.7-2.36-1.04-3.82-1.04-1.65,0-3.08.61-4.29,1.84-1.21,1.23-1.81,2.81-1.81,4.76,0,1.28.29,2.44.88,3.46.59,1.03,1.37,1.83,2.34,2.42.97.59,2.03.88,3.16.88Z"/>
            <path class="cls-1" d="M486.53,476.19l.55,3.85c.84-1.5,2.03-2.71,3.57-3.63,1.54-.92,3.41-1.37,5.61-1.37s4.17.67,5.69,2.01c1.52,1.34,2.3,3.07,2.34,5.2v17.98h-7.7v-15.12c-.04-1.06-.32-1.91-.85-2.56-.53-.64-1.42-.96-2.67-.96-1.8,0-3.22.83-4.26,2.5-1.04,1.67-1.57,3.78-1.57,6.35v9.79h-7.7v-24.03h6.98Z"/>
            <path class="cls-1" d="M522,500.88c-2.24,0-4.23-.52-5.99-1.57-1.76-1.04-3.14-2.56-4.15-4.54-1.01-1.98-1.51-4.32-1.51-7.04s.55-5.02,1.65-6.93c1.1-1.91,2.6-3.35,4.51-4.34,1.91-.99,4.07-1.48,6.49-1.48,1.54,0,3.01.24,4.43.71,1.41.48,2.59,1.21,3.55,2.2v-21.06h7.64v43.38h-7.7v-2.53c-1.17.92-2.49,1.68-3.96,2.28-1.47.61-3.12.91-4.95.91ZM524.52,494.39c1.54,0,2.82-.3,3.85-.91,1.03-.6,1.87-1.51,2.53-2.72v-5.88c-.44-1.17-1.23-2.11-2.36-2.8-1.14-.7-2.47-1.04-4.01-1.04-1.14,0-2.19.28-3.16.85-.97.57-1.75,1.35-2.34,2.34-.59.99-.88,2.13-.88,3.41s.29,2.44.88,3.46c.59,1.03,1.37,1.83,2.34,2.42.97.59,2.03.88,3.16.88Z"/>
            <path class="cls-1" d="M558.34,500.88c-2.93,0-5.42-.55-7.45-1.65-2.03-1.1-3.58-2.62-4.65-4.56-1.06-1.94-1.59-4.18-1.59-6.71s.62-4.6,1.87-6.54c1.25-1.94,2.91-3.49,5-4.65,2.09-1.15,4.42-1.73,6.98-1.73,3.45,0,6.28,1,8.49,3,2.22,2,3.66,4.88,4.32,8.66l-17.59,5.61c1.17,1.36,2.77,2.03,4.78,2.03.84,0,1.66-.15,2.45-.44.79-.29,1.57-.68,2.34-1.15l3.41,5.72c-1.28.73-2.67,1.32-4.15,1.76-1.48.44-2.89.66-4.21.66ZM552.24,488.01l10.56-3.57c-.33-.92-.86-1.71-1.59-2.39-.73-.68-1.83-1.02-3.3-1.02-1.72,0-3.1.59-4.12,1.76-1.03,1.17-1.54,2.75-1.54,4.73v.49Z"/>
            <path class="cls-1" d="M583.85,476.19l.6,5.5c.7-1.39,1.65-2.59,2.86-3.6,1.21-1.01,2.4-1.78,3.57-2.31,1.17-.53,2.07-.8,2.69-.8l-.38,7.7c-1.8-.22-3.34.07-4.62.88-1.28.81-2.27,1.87-2.97,3.19-.7,1.32-1.04,2.68-1.04,4.07v9.4h-7.64v-24.03h6.93Z"/>
          </g>
          <rect class="cls-2" x="100.77" y="456.84" width="498.46" height="47.64"/>
        </g>
      </g>
    </g>
  </g>
</svg>