<?xml version="1.0" encoding="UTF-8"?>
<svg id="_レイヤー_2" data-name="レイヤー 2" xmlns="http://www.w3.org/2000/svg" viewBox="0 0 1142.69 106.99">
  <defs>
    <style>
      .cls-1 {
        fill: #fff;
        stroke-width: 0px;
      }
    </style>
  </defs>
  <g id="_レイヤー_1-2" data-name="レイヤー 1">
    <g>
      <path class="cls-1" d="M0,7.54h22.1l18.85,55.38,14.56-36.53-7.54-18.85h18.72l21.45,53.17L104.39,7.54h20.28l-36.92,99.19-22.75-56.68-26.52,56.94L0,7.54Z"/>
      <path class="cls-1" d="M130,25.61c0-2.69,1.06-4.9,3.19-6.63,2.12-1.73,4.4-2.6,6.83-2.6s4.66.87,6.69,2.6c2.04,1.73,3.06,3.94,3.06,6.63s-1.02,4.88-3.06,6.57c-2.04,1.69-4.27,2.54-6.69,2.54s-4.7-.85-6.83-2.54c-2.12-1.69-3.19-3.88-3.19-6.57ZM130.39,45.76h18.2v56.81h-18.2v-56.81Z"/>
      <path class="cls-1" d="M167.31,0h18.2v102.57h-18.2V0Z"/>
      <path class="cls-1" d="M227.37,104.13c-5.29,0-10.01-1.24-14.17-3.71-4.16-2.47-7.43-6.04-9.82-10.73-2.38-4.68-3.57-10.22-3.57-16.64s1.3-11.87,3.9-16.38c2.6-4.51,6.15-7.93,10.66-10.27,4.5-2.34,9.62-3.51,15.34-3.51,3.64,0,7.13.56,10.46,1.69,3.34,1.13,6.13,2.86,8.39,5.2V0h18.07v102.57h-18.2v-5.98c-2.77,2.17-5.89,3.96-9.36,5.39-3.47,1.43-7.37,2.15-11.7,2.15ZM233.35,88.79c3.64,0,6.67-.72,9.1-2.15,2.42-1.43,4.42-3.58,5.98-6.43v-13.91c-1.04-2.77-2.9-4.98-5.59-6.63-2.69-1.65-5.85-2.47-9.49-2.47-2.69,0-5.18.67-7.48,2.02-2.3,1.34-4.14,3.18-5.52,5.52-1.39,2.34-2.08,5.03-2.08,8.06s.69,5.76,2.08,8.19c1.38,2.43,3.23,4.33,5.52,5.72,2.3,1.39,4.79,2.08,7.48,2.08Z"/>
      <path class="cls-1" d="M313.3,104.13c-6.93,0-12.8-1.3-17.61-3.9-4.81-2.6-8.47-6.2-10.99-10.79-2.51-4.59-3.77-9.88-3.77-15.86s1.47-10.88,4.42-15.47c2.95-4.59,6.89-8.25,11.83-10.98,4.94-2.73,10.44-4.1,16.51-4.1,8.15,0,14.84,2.36,20.08,7.08,5.24,4.72,8.64,11.55,10.21,20.48l-41.6,13.26c2.77,3.21,6.54,4.81,11.31,4.81,1.99,0,3.92-.34,5.79-1.04,1.86-.69,3.71-1.6,5.52-2.73l8.06,13.52c-3.04,1.74-6.31,3.12-9.82,4.16s-6.83,1.56-9.95,1.56ZM298.87,73.71l24.96-8.45c-.78-2.17-2.04-4.05-3.77-5.66-1.74-1.6-4.33-2.41-7.8-2.41-4.07,0-7.32,1.39-9.75,4.16-2.43,2.77-3.64,6.5-3.64,11.18v1.17Z"/>
      <path class="cls-1" d="M373.62,45.76l1.43,13c1.65-3.29,3.9-6.13,6.76-8.52,2.86-2.38,5.68-4.2,8.45-5.46,2.77-1.25,4.9-1.88,6.37-1.88l-.91,18.2c-4.25-.52-7.89.17-10.92,2.08-3.03,1.91-5.38,4.42-7.02,7.54-1.65,3.12-2.47,6.33-2.47,9.62v22.23h-18.07v-56.81h16.38Z"/>
      <path class="cls-1" d="M427.05,45.76l1.3,9.1c1.99-3.55,4.81-6.41,8.45-8.58,3.64-2.17,8.06-3.25,13.26-3.25s9.86,1.58,13.46,4.75c3.6,3.17,5.44,7.26,5.53,12.29v42.51h-18.2v-35.75c-.09-2.51-.76-4.53-2.02-6.04-1.26-1.52-3.36-2.27-6.3-2.27-4.25,0-7.6,1.97-10.08,5.92-2.47,3.94-3.71,8.95-3.71,15.01v23.14h-18.2v-56.81h16.51Z"/>
      <path class="cls-1" d="M515.71,104.13c-6.93,0-12.8-1.3-17.61-3.9-4.81-2.6-8.47-6.2-10.99-10.79-2.51-4.59-3.77-9.88-3.77-15.86s1.47-10.88,4.42-15.47c2.95-4.59,6.89-8.25,11.83-10.98,4.94-2.73,10.44-4.1,16.51-4.1,8.15,0,14.84,2.36,20.08,7.08,5.24,4.72,8.64,11.55,10.21,20.48l-41.6,13.26c2.77,3.21,6.54,4.81,11.31,4.81,1.99,0,3.92-.34,5.79-1.04,1.86-.69,3.71-1.6,5.52-2.73l8.06,13.52c-3.04,1.74-6.31,3.12-9.82,4.16s-6.83,1.56-9.95,1.56ZM501.28,73.71l24.96-8.45c-.78-2.17-2.04-4.05-3.77-5.66-1.74-1.6-4.33-2.41-7.8-2.41-4.07,0-7.32,1.39-9.75,4.16-2.43,2.77-3.64,6.5-3.64,11.18v1.17Z"/>
      <path class="cls-1" d="M578.11,103.74c-4.68,0-9.04-.82-13.07-2.47s-7.43-3.94-10.21-6.89l7.54-10.01c2.77,2.51,5.35,4.31,7.74,5.4,2.38,1.08,4.53,1.62,6.43,1.62,2.25,0,4.12-.35,5.59-1.04,1.47-.69,2.21-1.82,2.21-3.38,0-1.47-.58-2.64-1.75-3.51-1.17-.87-2.67-1.58-4.48-2.15-1.82-.56-3.77-1.15-5.85-1.75-5.2-1.65-8.95-4.05-11.25-7.21-2.3-3.16-3.44-6.61-3.44-10.33,0-2.86.76-5.74,2.27-8.65,1.52-2.9,3.94-5.33,7.28-7.28,3.33-1.95,7.65-2.93,12.93-2.93,4.77,0,8.8.48,12.09,1.43,3.29.95,6.41,2.51,9.36,4.68l-6.89,10.66c-1.65-1.3-3.49-2.41-5.53-3.32-2.04-.91-3.92-1.41-5.65-1.5-2.34-.08-4.16.33-5.46,1.24-1.3.91-1.95,1.97-1.95,3.19-.09,2.08.89,3.57,2.92,4.48,2.04.91,4.31,1.71,6.83,2.41.61.17,1.19.35,1.75.52.56.17,1.1.35,1.62.52,4.07,1.39,7.32,3.36,9.75,5.92,2.42,2.56,3.64,5.96,3.64,10.21,0,3.47-.89,6.74-2.67,9.81-1.78,3.08-4.46,5.57-8.06,7.48-3.6,1.91-8.17,2.86-13.71,2.86Z"/>
      <path class="cls-1" d="M636.21,103.74c-4.68,0-9.04-.82-13.07-2.47s-7.43-3.94-10.21-6.89l7.54-10.01c2.77,2.51,5.35,4.31,7.74,5.4,2.38,1.08,4.53,1.62,6.43,1.62,2.25,0,4.12-.35,5.59-1.04,1.47-.69,2.21-1.82,2.21-3.38,0-1.47-.58-2.64-1.75-3.51-1.17-.87-2.67-1.58-4.48-2.15-1.82-.56-3.77-1.15-5.85-1.75-5.2-1.65-8.95-4.05-11.25-7.21-2.3-3.16-3.44-6.61-3.44-10.33,0-2.86.76-5.74,2.27-8.65,1.52-2.9,3.94-5.33,7.28-7.28,3.33-1.95,7.65-2.93,12.93-2.93,4.77,0,8.8.48,12.09,1.43,3.29.95,6.41,2.51,9.36,4.68l-6.89,10.66c-1.65-1.3-3.49-2.41-5.53-3.32-2.04-.91-3.92-1.41-5.65-1.5-2.34-.08-4.16.33-5.46,1.24-1.3.91-1.95,1.97-1.95,3.19-.09,2.08.89,3.57,2.92,4.48,2.04.91,4.31,1.71,6.83,2.41.61.17,1.19.35,1.75.52.56.17,1.1.35,1.62.52,4.07,1.39,7.32,3.36,9.75,5.92,2.42,2.56,3.64,5.96,3.64,10.21,0,3.47-.89,6.74-2.67,9.81-1.78,3.08-4.46,5.57-8.06,7.48-3.6,1.91-8.17,2.86-13.71,2.86Z"/>
      <path class="cls-1" d="M670.66,7.54h22.1l18.85,55.38,14.56-36.53-7.54-18.85h18.72l21.45,53.17,16.25-53.17h20.28l-36.92,99.19-22.75-56.68-26.52,56.94-38.48-99.45Z"/>
      <path class="cls-1" d="M817.17,104.13c-5.29,0-10.08-1.06-14.37-3.19-4.29-2.12-7.69-5.39-10.21-9.81-2.51-4.42-3.77-10.05-3.77-16.9,0-6.41,1.3-11.96,3.9-16.64,2.6-4.68,6.02-8.3,10.27-10.86,4.25-2.55,8.75-3.83,13.52-3.83,5.55,0,9.75.89,12.61,2.67,2.86,1.78,5.24,3.79,7.15,6.04l1.17-5.85h16.9v56.81h-18.2v-7.02c-.87.87-2.14,1.99-3.83,3.38-1.69,1.39-3.79,2.6-6.3,3.64-2.51,1.04-5.46,1.56-8.84,1.56ZM822.37,89.31c6.33,0,10.92-2.86,13.78-8.58v-13.91c-1.04-2.77-2.84-4.98-5.39-6.63-2.56-1.65-5.57-2.47-9.04-2.47-3.9,0-7.28,1.45-10.14,4.35-2.86,2.91-4.29,6.65-4.29,11.25,0,3.04.69,5.76,2.08,8.19,1.38,2.43,3.23,4.33,5.52,5.72,2.3,1.39,4.79,2.08,7.48,2.08Z"/>
      <path class="cls-1" d="M889.58,45.76l1.3,9.1c1.99-3.55,4.81-6.41,8.45-8.58,3.64-2.17,8.06-3.25,13.26-3.25s9.86,1.58,13.46,4.75c3.6,3.17,5.44,7.26,5.53,12.29v42.51h-18.2v-35.75c-.09-2.51-.76-4.53-2.02-6.04-1.26-1.52-3.36-2.27-6.3-2.27-4.25,0-7.6,1.97-10.08,5.92-2.47,3.94-3.71,8.95-3.71,15.01v23.14h-18.2v-56.81h16.51Z"/>
      <path class="cls-1" d="M973.43,104.13c-5.29,0-10.01-1.24-14.17-3.71-4.16-2.47-7.43-6.04-9.82-10.73-2.38-4.68-3.57-10.22-3.57-16.64s1.3-11.87,3.9-16.38c2.6-4.51,6.15-7.93,10.66-10.27,4.5-2.34,9.62-3.51,15.34-3.51,3.64,0,7.13.56,10.46,1.69,3.34,1.13,6.13,2.86,8.39,5.2V0h18.07v102.57h-18.2v-5.98c-2.77,2.17-5.89,3.96-9.36,5.39-3.47,1.43-7.37,2.15-11.7,2.15ZM979.41,88.79c3.64,0,6.67-.72,9.1-2.15,2.42-1.43,4.42-3.58,5.98-6.43v-13.91c-1.04-2.77-2.9-4.98-5.59-6.63-2.69-1.65-5.85-2.47-9.49-2.47-2.69,0-5.18.67-7.48,2.02-2.3,1.34-4.14,3.18-5.52,5.52-1.39,2.34-2.08,5.03-2.08,8.06s.69,5.76,2.08,8.19c1.38,2.43,3.23,4.33,5.52,5.72,2.3,1.39,4.79,2.08,7.48,2.08Z"/>
      <path class="cls-1" d="M1059.36,104.13c-6.93,0-12.8-1.3-17.61-3.9-4.81-2.6-8.47-6.2-10.99-10.79-2.51-4.59-3.77-9.88-3.77-15.86s1.47-10.88,4.42-15.47c2.95-4.59,6.89-8.25,11.83-10.98,4.94-2.73,10.44-4.1,16.51-4.1,8.15,0,14.84,2.36,20.08,7.08,5.24,4.72,8.64,11.55,10.21,20.48l-41.6,13.26c2.77,3.21,6.54,4.81,11.31,4.81,1.99,0,3.92-.34,5.79-1.04,1.86-.69,3.71-1.6,5.52-2.73l8.06,13.52c-3.04,1.74-6.31,3.12-9.82,4.16s-6.83,1.56-9.95,1.56ZM1044.93,73.71l24.96-8.45c-.78-2.17-2.04-4.05-3.77-5.66-1.74-1.6-4.33-2.41-7.8-2.41-4.07,0-7.32,1.39-9.75,4.16-2.43,2.77-3.64,6.5-3.64,11.18v1.17Z"/>
      <path class="cls-1" d="M1119.68,45.76l1.43,13c1.65-3.29,3.9-6.13,6.76-8.52,2.86-2.38,5.68-4.2,8.45-5.46,2.77-1.25,4.9-1.88,6.37-1.88l-.91,18.2c-4.25-.52-7.89.17-10.92,2.08-3.03,1.91-5.38,4.42-7.02,7.54-1.65,3.12-2.47,6.33-2.47,9.62v22.23h-18.07v-56.81h16.38Z"/>
    </g>
  </g>
</svg>