<?xml version="1.0" encoding="UTF-8"?>
<svg id="_レイヤー_2" data-name="レイヤー 2" xmlns="http://www.w3.org/2000/svg" viewBox="0 0 415.1 162.8">
  <defs>
    <style>
      .cls-1 {
        fill: #fff;
        stroke-width: 0px;
      }
    </style>
  </defs>
  <g id="_レイヤー_1-2" data-name="レイヤー 1">
    <g>
      <path class="cls-1" d="M30,50.2c3.87,0,7.1.3,9.7.9,2.6.6,6.03,1.17,10.3,1.7.67,2.93,1.2,6.37,1.6,10.3.4,3.93.67,7.63.8,11.1,0,.67-.67,1-2,1-.53,0-1.1-.07-1.7-.2-.6-.13-1.17-.4-1.7-.8-.67-2.4-1.77-5-3.3-7.8-1.53-2.8-3.4-5.17-5.6-7.1-2.2-1.93-4.7-2.9-7.5-2.9-4.67,0-8.13,1.17-10.4,3.5-2.27,2.33-3.4,5.23-3.4,8.7s.8,6.03,2.4,8.1c1.6,2.07,3.7,3.87,6.3,5.4,2.6,1.53,5.37,3.17,8.3,4.9,2.93,1.73,6.13,3.67,9.6,5.8,3.47,2.13,6.47,4.63,9,7.5,2.53,2.87,3.8,6.37,3.8,10.5,0,5.2-1.4,9.83-4.2,13.9-2.8,4.07-6.47,7.27-11,9.6-4.53,2.33-9.47,3.5-14.8,3.5-4.53,0-8.4-.43-11.6-1.3-3.2-.87-6.93-1.7-11.2-2.5-.53-1.47-1.07-3.47-1.6-6-.53-2.53-.97-5.13-1.3-7.8-.33-2.67-.5-4.8-.5-6.4,1.07-.8,2.27-1.2,3.6-1.2.67,0,1.2.13,1.6.4.8,2.67,2.2,5.43,4.2,8.3,2,2.87,4.47,5.27,7.4,7.2,2.93,1.93,6.13,2.9,9.6,2.9,4,0,7.33-1.2,10-3.6,2.67-2.4,4-5.87,4-10.4,0-4-1.2-7.23-3.6-9.7-2.4-2.47-5.4-4.67-9-6.6-3.6-1.93-7.33-3.97-11.2-6.1-3.87-2.27-7.3-5.03-10.3-8.3-3-3.27-4.5-7.5-4.5-12.7,0-4.8,1.37-9,4.1-12.6,2.73-3.6,6.23-6.37,10.5-8.3,4.27-1.93,8.8-2.9,13.6-2.9Z"/>
      <path class="cls-1" d="M88.8,111.6c1.73,0,3.4.47,5,1.4.67,1.2,1.43,2.83,2.3,4.9.87,2.07,1.3,4.97,1.3,8.7,0,2.8-.7,6-2.1,9.6-1.4,3.6-3.27,7.17-5.6,10.7-2.33,3.53-4.83,6.73-7.5,9.6-2.67,2.87-5.27,4.97-7.8,6.3-.67,0-1.33-.57-2-1.7-.67-1.13-1-1.97-1-2.5,1.33-1.07,2.97-2.47,4.9-4.2,1.93-1.73,3.67-4.03,5.2-6.9,1.53-2.87,2.3-6.37,2.3-10.5,0-2.13-.53-3.9-1.6-5.3-1.07-1.4-2.17-2.87-3.3-4.4-1.13-1.53-1.7-3.57-1.7-6.1,0-2.13,1.07-4.27,3.2-6.4s4.93-3.2,8.4-3.2ZM76,62c0-2.93,1.07-5.43,3.2-7.5,2.13-2.07,4.67-3.1,7.6-3.1s5.43,1.04,7.5,3.1c2.07,2.07,3.1,4.57,3.1,7.5s-1.03,5.5-3.1,7.7c-2.07,2.2-4.57,3.3-7.5,3.3s-5.47-1.1-7.6-3.3c-2.13-2.2-3.2-4.77-3.2-7.7Z"/>
      <path class="cls-1" d="M140.4,51.2h25.2c.67,0,1,.73,1,2.2,0,2-.93,3.93-2.8,5.8h-23.4v51.2c0,10.67,4.33,16,13,16,2.93,0,5.6-.6,8-1.8,2.4-1.2,3.93-2.07,4.6-2.6.4.13.6.53.6,1.2,0,1.47-.27,2.47-.8,3-.93,1.07-2.37,2.47-4.3,4.2-1.93,1.73-4.23,3.27-6.9,4.6-2.67,1.33-5.6,2-8.8,2s-6.57-.6-9.7-1.8c-3.13-1.2-5.7-3.33-7.7-6.4-2-3.07-3-7.4-3-13v-56.6h-11.4c-.27,0-.47-.23-.6-.7-.13-.47-.2-.83-.2-1.1s.4-.9,1.2-1.9c.8-1,2.07-2.43,3.8-4.3h7.2v-12.2c1.33-1.47,2.9-3.17,4.7-5.1,1.8-1.93,3.43-3.73,4.9-5.4,1.47-1.67,2.27-2.57,2.4-2.7.53-.53,1.17-.8,1.9-.8s1.1.2,1.1.6v25.6Z"/>
      <path class="cls-1" d="M219.4,49.8c8.67,0,16.1,1.87,22.3,5.6,6.2,3.73,11,8.8,14.4,15.2,3.4,6.4,5.1,13.67,5.1,21.8s-1.8,15.97-5.4,22.7c-3.6,6.73-8.53,12.07-14.8,16-6.27,3.93-13.33,5.9-21.2,5.9-8.53,0-15.97-1.9-22.3-5.7-6.33-3.8-11.2-8.93-14.6-15.4-3.4-6.46-5.1-13.77-5.1-21.9s1.83-15.93,5.5-22.6c3.67-6.67,8.63-11.93,14.9-15.8,6.27-3.87,13.33-5.8,21.2-5.8ZM217.2,56.4c-5.47,0-9.87,1.63-13.2,4.9-3.33,3.27-5.73,7.47-7.2,12.6-1.47,5.13-2.2,10.5-2.2,16.1,0,6.27,1.03,12.53,3.1,18.8,2.07,6.27,5.13,11.47,9.2,15.6,4.07,4.13,9.03,6.2,14.9,6.2s10.03-1.63,13.3-4.9,5.63-7.5,7.1-12.7c1.47-5.2,2.2-10.53,2.2-16,0-6.4-1.07-12.7-3.2-18.9-2.13-6.2-5.2-11.37-9.2-15.5-4-4.13-8.93-6.2-14.8-6.2Z"/>
      <path class="cls-1" d="M318.79,49.8c8.67,0,16.1,1.87,22.3,5.6,6.2,3.73,11,8.8,14.4,15.2,3.4,6.4,5.1,13.67,5.1,21.8s-1.8,15.97-5.4,22.7c-3.6,6.73-8.53,12.07-14.8,16-6.27,3.93-13.33,5.9-21.2,5.9-8.53,0-15.97-1.9-22.3-5.7-6.33-3.8-11.2-8.93-14.6-15.4-3.4-6.46-5.1-13.77-5.1-21.9s1.83-15.93,5.5-22.6c3.67-6.67,8.63-11.93,14.9-15.8,6.27-3.87,13.33-5.8,21.2-5.8ZM316.59,56.4c-5.47,0-9.87,1.63-13.2,4.9-3.33,3.27-5.73,7.47-7.2,12.6-1.47,5.13-2.2,10.5-2.2,16.1,0,6.27,1.03,12.53,3.1,18.8,2.07,6.27,5.13,11.47,9.2,15.6,4.07,4.13,9.03,6.2,14.9,6.2s10.03-1.63,13.3-4.9,5.63-7.5,7.1-12.7c1.47-5.2,2.2-10.53,2.2-16,0-6.4-1.07-12.7-3.2-18.9-2.13-6.2-5.2-11.37-9.2-15.5-4-4.13-8.93-6.2-14.8-6.2Z"/>
      <path class="cls-1" d="M385.99,26.6c0-1.47-.03-3.23-.1-5.3-.07-2.07-.37-3.7-.9-4.9-.53-1.46-1.97-2.4-4.3-2.8-2.33-.4-4.83-.6-7.5-.6-.13,0-.23-.83-.3-2.5-.07-1.67.1-2.57.5-2.7,4.93-.53,9.73-1.5,14.4-2.9,4.67-1.4,9.07-3.03,13.2-4.9.53,0,1.03.37,1.5,1.1.47.73.7,1.43.7,2.1-1.47,5.87-2.2,11.53-2.2,17v92.8c0,2.93.03,5.67.1,8.2.07,2.53.37,4.6.9,6.2.27.67,1.23,1.27,2.9,1.8,1.67.53,3.47.9,5.4,1.1,1.93.2,3.3.3,4.1.3.4.53.63,1.47.7,2.8.07,1.33-.17,2.27-.7,2.8-4-.27-7.53-.5-10.6-.7-3.07-.2-6.54-.3-10.4-.3s-7.1.1-10.1.3-6.5.43-10.5.7c-.54-.54-.77-1.47-.7-2.8.07-1.33.3-2.27.7-2.8.8,0,2.13-.1,4-.3,1.87-.2,3.67-.57,5.4-1.1,1.73-.53,2.67-1.13,2.8-1.8.53-1.6.83-3.67.9-6.2.07-2.53.1-5.27.1-8.2V26.6Z"/>
    </g>
  </g>
</svg>