<?xml version="1.0" encoding="UTF-8"?>
<svg id="_レイヤー_2" data-name="レイヤー 2" xmlns="http://www.w3.org/2000/svg" viewBox="0 0 100 100">
  <defs>
    <style>
      .cls-1, .cls-2 {
        stroke-width: 0px;
      }

      .cls-2, .cls-3 {
        fill: #fff;
      }

      .cls-3 {
        stroke: #000;
        stroke-linecap: square;
        stroke-miterlimit: 10;
        stroke-width: 3px;
      }
    </style>
  </defs>
  <g id="_レイヤー_1-2" data-name="レイヤー 1">
    <g>
      <rect class="cls-1" width="100" height="100"/>
      <g>
        <path class="cls-2" d="M59.36,90.71c-2.81,0-5.22-.08-7.22-.25-2-.16-3.84-.43-5.5-.81l.84-6.75c2.46.38,4.63.66,6.52.84,1.89.19,3.67.28,5.36.28,3.77,0,6.51-.37,8.21-1.11,1.7-.74,2.55-1.92,2.55-3.53,0-1.12-.3-1.96-.9-2.51-.6-.55-1.52-.98-2.76-1.28l-8.58-2.18c-3.68-.94-6.38-2.1-8.1-3.48-1.72-1.38-2.58-3.48-2.58-6.29,0-4.08,1.56-7.03,4.69-8.86s8.17-2.74,15.13-2.74c1.8,0,3.49.05,5.04.16,1.56.11,3.16.29,4.8.54l-.77,6.47c-1.9-.19-3.57-.32-5.03-.39-1.45-.07-2.87-.11-4.25-.11-4.17,0-7.2.36-9.07,1.07-1.88.72-2.81,1.88-2.81,3.5,0,1.08.39,1.86,1.16,2.34.77.48,1.96.92,3.55,1.32l6.89,1.69c3.91.94,6.78,2.19,8.6,3.76,1.82,1.57,2.72,3.86,2.72,6.86,0,4.01-1.46,6.92-4.39,8.74-2.93,1.82-7.63,2.72-14.1,2.72Z"/>
        <circle class="cls-2" cx="47.13" cy="20.08" r="10.24"/>
        <polyline class="cls-3" points="22.15 90.71 37.95 90.71 39.25 59.17 60.2 47.14 51.52 32.07"/>
      </g>
    </g>
  </g>
</svg>