<?xml version="1.0" encoding="UTF-8"?>
<svg id="_レイヤー_2" data-name="レイヤー 2" xmlns="http://www.w3.org/2000/svg" viewBox="0 0 1073.84 142.91">
  <defs>
    <style>
      .cls-1 {
        fill: #457324;
      }

      .cls-1, .cls-2 {
        stroke-width: 0px;
      }

      .cls-2 {
        fill: #f07923;
      }
    </style>
  </defs>
  <g id="_2" data-name="2">
    <g>
      <path class="cls-2" d="M172.89,37.32c10.56,0,18.12,4.2,21,8.64,5.16-5.16,13.2-8.64,21.72-8.64,10.56,0,20.4,7.8,20.4,16.44v36.96c0,3.96,1.2,11.52,1.2,13.44,0,1.56-.72,2.52-1.92,2.76-3.24.6-9.6,1.2-16.08,1.2-5.64,0-11.76-.12-13.68-.6-.84-.24-1.92-1.44-1.92-2.64,0-2.04.84-10.92.84-14.64v-24c0-4.92-1.8-9.36-4.8-9.36-.96,0-2.04.48-3.12,1.44v29.4c0,7.2,1.2,14.16,1.2,16.92,0,1.2-.48,1.8-1.32,2.04-3.24.84-9.72,1.44-16.2,1.44-5.52,0-12.12-.48-14.52-.84-.96-.12-1.56-1.44-1.56-2.52,0-1.56.84-5.52.84-12.12v-27.72c0-5.28-1.8-8.04-4.32-8.04-1.56,0-2.76.6-3.6,1.44v22.8c0,12.72,1.44,19.44,1.44,23.88,0,1.44-.48,2.16-1.68,2.4-3.24.6-7.56.72-16.44.72-7.2,0-10.44-.12-13.8-.84-.84-.24-2.04-1.08-2.04-2.16,0-2.04.96-5.76.96-12.48v-29.88c0-4.44-2.4-10.92-4.68-13.08,1.2-6,7.32-9.96,14.88-9.96s12.6,2.16,16.8,7.92c3.36-7.32,11.64-10.32,20.4-10.32Z"/>
      <path class="cls-2" d="M312.21,63.36v25.44c0,5.04,1.8,9.12,2.88,9.48.6.36.96,1.2.96,2.04,0,6.24-10.68,9-15,9-9.6,0-13.32-2.88-16.2-7.68-3.12,4.92-12.36,7.68-22.2,7.68-12,0-21.6-4.44-21.6-14.4s7.2-14.76,14.76-17.28c7.08-2.4,14.88-4.2,24.84-4.2,0-17.04-2.76-24.84-6-24.84-3,0-4.44,2.88-4.44,8.52,0,4.2,1.08,8.28,2.16,10.08-2.76,2.76-10.08,5.04-16.68,5.04s-11.64-4.32-11.64-12.96c0-13.92,17.28-21.96,35.76-21.96s32.4,7.32,32.4,26.04ZM275.61,97.92c1.92,0,4.32-3,5.04-5.76v-11.76c-4.68,0-9.12,4.92-9.12,9.36,0,5.28,1.8,8.16,4.08,8.16Z"/>
      <path class="cls-2" d="M374.13,37.32c12.84,0,22.08,9.48,22.08,20.4v31.08c0,9.72,1.2,12.72,1.2,14.76,0,1.56-.6,2.76-1.56,3.12-3.36,1.2-9.24,1.44-15.72,1.44s-12.12-.72-14.28-1.32c-.84-.24-1.68-.84-1.68-2.28,0-2.04.48-6.96.48-9v-29.16c0-5.16-1.92-9.36-5.76-9.36-1.2,0-2.16.36-3.12,1.08v29.88c0,7.32,1.08,13.56,1.08,15.96,0,1.32-1.56,2.64-2.28,2.88-3.24,1.08-9.12,1.32-15,1.32-4.2,0-10.32-.24-13.8-1.2-1.56-.48-2.52-1.2-2.52-2.76,0-1.92.96-4.8.96-10.08v-34.68c0-5.04-2.04-8.16-3.96-9.96,0-4.44,9.12-9.72,16.56-9.72s12.96,2.88,15.72,8.04c3.84-6.24,12-10.44,21.6-10.44Z"/>
      <path class="cls-2" d="M456.57,19.32c13.2,0,20.64,4.32,23.64,8.04-1.68,6.36-3.6,13.8-3.6,29.16v33.72c0,3.24,1.08,5.88,2.52,7.32.36.36.6,1.2.6,2.16,0,4.44-7.2,9.6-15.72,9.6-7.2,0-13.68-3.24-16.2-7.2-3.72,4.2-10.44,7.2-19.08,7.2-15.72,0-26.28-14.76-26.28-34.44,0-23.28,14.28-37.56,32.4-37.56,4.44,0,8.88,1.56,10.2,2.88v-2.76c0-2.4-2.4-6.6-5.16-8.04,0-5.64,8.52-10.08,16.68-10.08ZM445.05,58.2c-.24-4.56-1.92-7.08-4.68-7.08-3.36,0-6.36,8.76-6.36,18.96,0,20.4,3,24.12,7.68,24.12,1.68,0,2.64-.6,3.36-1.68v-34.32Z"/>
      <path class="cls-2" d="M556.05,63.36v25.44c0,5.04,1.8,9.12,2.88,9.48.6.36.96,1.2.96,2.04,0,6.24-10.68,9-15,9-9.6,0-13.32-2.88-16.2-7.68-3.12,4.92-12.36,7.68-22.2,7.68-12,0-21.6-4.44-21.6-14.4s7.2-14.76,14.76-17.28c7.08-2.4,14.88-4.2,24.84-4.2,0-17.04-2.76-24.84-6-24.84-3,0-4.44,2.88-4.44,8.52,0,4.2,1.08,8.28,2.16,10.08-2.76,2.76-10.08,5.04-16.68,5.04s-11.64-4.32-11.64-12.96c0-13.92,17.28-21.96,35.76-21.96s32.4,7.32,32.4,26.04ZM519.45,97.92c1.92,0,4.32-3,5.04-5.76v-11.76c-4.68,0-9.12,4.92-9.12,9.36,0,5.28,1.8,8.16,4.08,8.16Z"/>
      <path class="cls-2" d="M568.89,63.6c0-6.12-3.72-10.32-6.48-11.52-.12-.24-.24-.6-.24-.96,0-7.08,8.52-11.52,17.04-11.52,6.72,0,11.28,2.88,14.04,9.36,2.52-6.48,9.6-11.64,16.92-11.64s11.88,3.96,11.88,10.44c0,7.44-3.84,12.48-7.56,13.8-.96-2.04-3.96-3.72-7.32-3.72-3.6,0-6.72,3.84-6.72,8.04v26.04c0,4.32,1.56,10.44,1.56,12.48,0,1.32-1.08,2.76-1.92,3-2.4.6-9.24.72-15.72.72-7.32,0-13.68-.6-15.36-1.44-.6-.36-1.2-1.2-1.2-2.64,0-2.04,1.08-9.24,1.08-14.88v-25.56Z"/>
      <g>
        <path class="cls-1" d="M655.64,31.8l8.04-9.12c-4.32-3-12.36-4.8-21.6-4.8-8.16,0-14.88,7.56-14.88,13.92,6.24.96,12.36,1.56,17.4,1.56s8.64-.48,11.04-1.56Z"/>
        <path class="cls-2" d="M660.92,40.92c-4.2-2.16-12.24-3.84-22.08-3.84-9.12,0-14.76,4.2-14.76,7.68,2.64,2.04,3.6,10.2,3.84,18.36v31.08c0,5.28-1.08,9.6-1.08,11.64,0,.6.36.96.96,1.08,1.56.36,6.84,1.2,15.96,1.2,8.64,0,11.64-.84,14.04-1.2.84-.12,2.76-.48,2.76-1.8,0-2.52-1.08-7.92-1.08-13.8v-36.84c0-6.24.84-11.4,1.44-13.56Z"/>
      </g>
      <path class="cls-2" d="M721.64,37.32c12.84,0,22.08,9.48,22.08,20.4v31.08c0,9.72,1.2,12.72,1.2,14.76,0,1.56-.6,2.76-1.56,3.12-3.36,1.2-9.24,1.44-15.72,1.44s-12.12-.72-14.28-1.32c-.84-.24-1.68-.84-1.68-2.28,0-2.04.48-6.96.48-9v-29.16c0-5.16-1.92-9.36-5.76-9.36-1.2,0-2.16.36-3.12,1.08v29.88c0,7.32,1.08,13.56,1.08,15.96,0,1.32-1.56,2.64-2.28,2.88-3.24,1.08-9.12,1.32-15,1.32-4.2,0-10.32-.24-13.8-1.2-1.56-.48-2.52-1.2-2.52-2.76,0-1.92.96-4.8.96-10.08v-34.68c0-5.04-2.04-8.16-3.96-9.96,0-4.44,9.12-9.72,16.56-9.72s12.96,2.88,15.72,8.04c3.84-6.24,12-10.44,21.6-10.44Z"/>
      <path class="cls-2" d="M774.92,110.64c0-4.8-2.28-12.6-2.28-20.4v-25.56c0-1.08-.72-1.92-1.8-1.92h-2.64c-2.4-1.68-4.44-6.84-4.44-14.64l8.88,2.04v-17.28c0-22.32,26.04-32.88,40.44-32.88,9.96,0,15.96,3.96,15.96,10.08s-5.28,11.4-11.76,11.4c-1.8-2.88-6.12-5.64-9.72-5.64-3.96,0-7.44,7.08-7.44,18.36,0,6.6,2.04,11.88,2.88,13.68h14.28c0,7.08-3,12.24-7.44,14.76l-5.64-1.92v39c0,16.44-14.88,33.6-34.2,33.6-7.68,0-22.32-1.68-25.92-1.68-6.12,0-9,3.24-9,6.6,0,.96.24,1.92.72,2.76-1.08,1.08-4.44,1.92-6.84,1.92-4.56,0-10.56-5.16-10.56-15s8.4-17.4,20.4-17.4,23.76,10.44,28.44,10.44,7.68-3.48,7.68-10.32Z"/>
      <path class="cls-2" d="M890.24,63.36v25.44c0,5.04,1.8,9.12,2.88,9.48.6.36.96,1.2.96,2.04,0,6.24-10.68,9-15,9-9.6,0-13.32-2.88-16.2-7.68-3.12,4.92-12.36,7.68-22.2,7.68-12,0-21.6-4.44-21.6-14.4s7.2-14.76,14.76-17.28c7.08-2.4,14.88-4.2,24.84-4.2,0-17.04-2.76-24.84-6-24.84-3,0-4.44,2.88-4.44,8.52,0,4.2,1.08,8.28,2.16,10.08-2.76,2.76-10.08,5.04-16.68,5.04s-11.64-4.32-11.64-12.96c0-13.92,17.28-21.96,35.76-21.96s32.4,7.32,32.4,26.04ZM853.64,97.92c1.92,0,4.32-3,5.04-5.76v-11.76c-4.68,0-9.12,4.92-9.12,9.36,0,5.28,1.8,8.16,4.08,8.16Z"/>
      <path class="cls-2" d="M903.08,63.6c0-6.12-3.72-10.32-6.48-11.52-.12-.24-.24-.6-.24-.96,0-7.08,8.52-11.52,17.04-11.52,6.72,0,11.28,2.88,14.04,9.36,2.52-6.48,9.6-11.64,16.92-11.64s11.88,3.96,11.88,10.44c0,7.44-3.84,12.48-7.56,13.8-.96-2.04-3.96-3.72-7.32-3.72-3.6,0-6.72,3.84-6.72,8.04v26.04c0,4.32,1.56,10.44,1.56,12.48,0,1.32-1.08,2.76-1.92,3-2.4.6-9.24.72-15.72.72-7.32,0-13.68-.6-15.36-1.44-.6-.36-1.2-1.2-1.2-2.64,0-2.04,1.08-9.24,1.08-14.88v-25.56Z"/>
      <path class="cls-2" d="M1009.52,37.32c10.56,0,18.12,4.2,21,8.64,5.16-5.16,13.2-8.64,21.72-8.64,10.56,0,20.4,7.8,20.4,16.44v36.96c0,3.96,1.2,11.52,1.2,13.44,0,1.56-.72,2.52-1.92,2.76-3.24.6-9.6,1.2-16.08,1.2-5.64,0-11.76-.12-13.68-.6-.84-.24-1.92-1.44-1.92-2.64,0-2.04.84-10.92.84-14.64v-24c0-4.92-1.8-9.36-4.8-9.36-.96,0-2.04.48-3.12,1.44v29.4c0,7.2,1.2,14.16,1.2,16.92,0,1.2-.48,1.8-1.32,2.04-3.24.84-9.72,1.44-16.2,1.44-5.52,0-12.12-.48-14.52-.84-.96-.12-1.56-1.44-1.56-2.52,0-1.56.84-5.52.84-12.12v-27.72c0-5.28-1.8-8.04-4.32-8.04-1.56,0-2.76.6-3.6,1.44v22.8c0,12.72,1.44,19.44,1.44,23.88,0,1.44-.48,2.16-1.68,2.4-3.24.6-7.56.72-16.44.72-7.2,0-10.44-.12-13.8-.84-.84-.24-2.04-1.08-2.04-2.16,0-2.04.96-5.76.96-12.48v-29.88c0-4.44-2.4-10.92-4.68-13.08,1.2-6,7.32-9.96,14.88-9.96s12.6,2.16,16.8,7.92c3.36-7.32,11.64-10.32,20.4-10.32Z"/>
      <g>
        <path class="cls-2" d="M105.66,69.77c-.01-.36-.03-.71-.04-1.07-.06-1.21-.17-2.42-.31-3.61-.03-.21-.05-.42-.08-.63-.18-1.38-.42-2.75-.71-4.1,0,0,0-.01,0-.02-1.19-5.56-3.26-10.85-6.19-15.76-.09-.15-.18-.3-.27-.44-.6-.98-1.23-1.95-1.9-2.9-.21-.3-.43-.6-.64-.9-.31-.43-.6-.87-.93-1.29-1-1.3-2.08-2.56-3.21-3.75-.81-.86-1.58-1.62-2.35-2.33-1.14-1.09-2.37-2.15-3.75-3.24-8.87-6.91-19.51-10.75-30.85-11.09-.52-.02-1.04-.03-1.58-.03s-1.06.02-1.65.03c-12.84.4-25.1,5.48-34.53,14.31-.79.76-1.57,1.54-2.33,2.35C5.1,45.11,0,57.96,0,71.47c0,9.26,2.44,18.37,7.07,26.37,1.99,3.47,4.44,6.77,7.29,9.81.76.79,1.54,1.57,2.33,2.33,3.03,2.82,6.33,5.28,9.81,7.29,7.52,4.34,16.07,6.77,24.71,7.02.54.02,1.09.03,1.65.03s1.11-.02,1.65-.03c12.84-.4,25.1-5.48,34.53-14.31.85-.8,1.62-1.57,2.33-2.35,9.26-9.82,14.36-22.67,14.36-36.16,0-.57-.05-1.13-.07-1.7ZM96.48,71.46c0,24.05-19.57,43.62-43.62,43.62S9.24,95.51,9.24,71.46,28.81,27.84,52.86,27.84c24.05,0,43.62,19.57,43.62,43.62Z"/>
        <path class="cls-2" d="M51.01,75.96c-.07-.03-.14-.05-.23-.05-.02,0-.04,0-.07,0l-20.3,20.3c-.2.55-.26,1.09-.2,1.62.1,1.1.69,1.86,1.61,2.73.03.03,2.93,3.03,7.03,4.73,3.74,1.54,7.48,1.62,8.19,1.62h.13c1.12,0,2.2-.06,3.08-.78.43-.35.76-.78,1-1.3v-28.75c-.08-.05-.14-.08-.24-.12Z"/>
        <path class="cls-2" d="M54.73,66.96c.09.04.18.05.28.05h.01l20.29-20.29c.19-.5.27-1.06.22-1.63-.1-1.08-.69-1.85-1.63-2.73-.03-.03-2.91-3.03-7.03-4.73-3.7-1.53-7.42-1.62-8.28-1.62h-.02c-1.13,0-2.21.06-3.08.77-.44.36-.8.82-1.02,1.35v28.7c.09.06.17.11.25.14Z"/>
        <path class="cls-2" d="M48.37,73.32c-.15-.36-.49-.58-.89-.58h-26.41c-1.12,0-2.17.49-2.88,1.35-.69.85-.8,1.81-.77,3.07,0,.04-.08,4.2,1.62,8.32,1.7,4.1,4.7,7,4.73,7.03.79.79,1.59,1.51,2.73,1.61.13.02.25.02.38.02.4,0,.82-.07,1.25-.23l20.3-20.31c0-.1-.02-.19-.05-.28Z"/>
        <path class="cls-2" d="M81.97,50.41c-.79-.79-1.6-1.51-2.73-1.61-.12-.01-.23-.02-.35-.02-.43,0-.86.07-1.28.22l-20.3,20.31c0,.1.02.19.05.28.13.35.48.58.87.58h26.43c1.11,0,2.16-.49,2.87-1.35.7-.84.82-1.8.78-3.07,0-.04.08-4.2-1.62-8.32-1.7-4.1-4.7-7-4.73-7.03Z"/>
        <path class="cls-2" d="M18.18,68.83c.72.86,1.77,1.35,2.88,1.35h26.41c.39,0,.73-.22.89-.58.04-.09.05-.18.04-.3l-20.3-20.3c-.42-.15-.83-.22-1.24-.22-.13,0-.25,0-.38.02-1.07.1-1.84.69-2.73,1.61-.03.03-3.03,2.92-4.73,7.03-1.7,4.12-1.62,8.28-1.62,8.32,0,1.12.06,2.2.77,3.07Z"/>
        <path class="cls-2" d="M87.54,74.09c-.69-.86-1.74-1.35-2.87-1.35h-26.43c-.39,0-.74.23-.87.58-.03.08-.05.19-.04.32l20.28,20.28c.42.15.84.22,1.25.22.13,0,.26,0,.38-.02,1.08-.1,1.82-.66,2.73-1.61.03-.03,3.03-2.92,4.73-7.03,1.7-4.12,1.62-8.28,1.62-8.32,0-1.12-.06-2.2-.78-3.08Z"/>
        <path class="cls-2" d="M50.24,36.77c-.84-.68-1.79-.77-2.7-.77h-.51c-.71,0-4.45.08-8.19,1.63-4.1,1.7-7,4.7-7.03,4.73-.79.79-1.51,1.59-1.61,2.73-.06.55.01,1.12.22,1.66l20.28,20.28h.02c.1-.02.19-.04.27-.07.09-.04.16-.07.24-.15v-28.76c-.25-.51-.6-.95-1-1.28Z"/>
        <path class="cls-2" d="M55.01,75.91c-.1,0-.19.02-.28.05-.08.03-.16.08-.25.16v28.69c.25.54.59.98,1.02,1.32.82.69,1.78.79,2.7.79h.51c.71,0,4.45-.08,8.17-1.63,4.12-1.7,7-4.7,7.03-4.73.77-.75,1.52-1.58,1.63-2.73.05-.57-.02-1.13-.22-1.64l-20.3-20.28Z"/>
      </g>
    </g>
  </g>
</svg>